Playfair Display-Italic.ufo
<glyph name="uni018F" format="1">
  <advance width="728"/>
  <unicode hex="018F"/>
  <outline>
    <contour>
      <point x="286" y="-14" type="curve" smooth="yes"/>
      <point x="550" y="-14"/>
      <point x="707" y="274"/>
      <point x="707" y="481" type="curve" smooth="yes"/>
      <point x="707" y="632"/>
      <point x="624" y="722"/>
      <point x="462" y="722" type="curve" smooth="yes"/>
      <point x="378" y="722"/>
      <point x="330" y="698"/>
      <point x="254" y="657" type="curve" smooth="yes"/>
      <point x="245" y="652"/>
      <point x="236" y="649"/>
      <point x="231" y="649" type="curve" smooth="yes"/>
      <point x="222" y="649"/>
      <point x="218" y="657"/>
      <point x="218" y="674" type="curve" smooth="yes"/>
      <point x="218" y="683"/>
      <point x="219" y="696"/>
      <point x="221" y="708" type="curve"/>
      <point x="198" y="708" type="line"/>
      <point x="184" y="624"/>
      <point x="171" y="564"/>
      <point x="143" y="468" type="curve"/>
      <point x="166" y="468" type="line"/>
      <point x="197" y="549"/>
      <point x="219" y="593"/>
      <point x="255" y="626" type="curve" smooth="yes"/>
      <point x="303" y="670"/>
      <point x="373" y="696"/>
      <point x="434" y="696" type="curve" smooth="yes"/>
      <point x="536" y="696"/>
      <point x="601" y="622"/>
      <point x="601" y="481" type="curve" smooth="yes"/>
      <point x="601" y="268"/>
      <point x="453" y="4"/>
      <point x="299" y="4" type="curve" smooth="yes"/>
      <point x="215" y="4"/>
      <point x="160" y="82"/>
      <point x="160" y="220" type="curve" smooth="yes"/>
      <point x="160" y="262"/>
      <point x="165" y="305"/>
      <point x="174" y="347" type="curve"/>
      <point x="610" y="347" type="line"/>
      <point x="614" y="366" type="line"/>
      <point x="74" y="366" type="line"/>
      <point x="62" y="321"/>
      <point x="54" y="276"/>
      <point x="54" y="229" type="curve" smooth="yes"/>
      <point x="54" y="71"/>
      <point x="143" y="-14"/>
    </contour>
    <contour>
      <point x="304" y="0" type="move" name="bottom"/>
    </contour>
    <contour>
      <point x="470" y="708" type="move" name="top"/>
    </contour>
  </outline>
</glyph>
<glyph name="Ohorn" format="1">
  <advance width="729"/>
  <unicode hex="01A0"/>
  <outline>
    <contour>
      <point x="556" y="684" type="line"/>
      <point x="655" y="675"/>
      <point x="727" y="690"/>
      <point x="778" y="720" type="curve" smooth="yes"/>
      <point x="817" y="743"/>
      <point x="843" y="775"/>
      <point x="843" y="809" type="curve" smooth="yes"/>
      <point x="843" y="838"/>
      <point x="824" y="864"/>
      <point x="787" y="864" type="curve" smooth="yes"/>
      <point x="748" y="864"/>
      <point x="729" y="835"/>
      <point x="729" y="805" type="curve" smooth="yes"/>
      <point x="729" y="774"/>
      <point x="749" y="750"/>
      <point x="770" y="734" type="curve"/>
      <point x="771" y="741" type="line"/>
      <point x="722" y="708"/>
      <point x="663" y="696"/>
      <point x="548" y="707" type="curve"/>
    </contour>
    <component base="O"/>
  </outline>
</glyph>
<glyph name="uni01E5" format="1">
  <advance width="449"/>
  <unicode hex="01E5"/>
  <outline>
    <contour>
      <point x="425" y="-55" type="line"/>
      <point x="-153" y="-55" type="line"/>
      <point x="-157" y="-75" type="line"/>
      <point x="421" y="-75" type="line"/>
    </contour>
    <component base="g"/>
  </outline>
</glyph>
<glyph name="uni0306" format="1">
  <advance width="399"/>
  <unicode hex="0306"/>
  <outline>
    <contour>
      <point x="292" y="700" type="curve" smooth="yes"/>
      <point x="229" y="700"/>
      <point x="197" y="721"/>
      <point x="166" y="784" type="curve"/>
      <point x="150" y="779" type="line"/>
      <point x="162" y="699"/>
      <point x="201" y="633"/>
      <point x="275" y="633" type="curve" smooth="yes"/>
      <point x="353" y="633"/>
      <point x="461" y="710"/>
      <point x="509" y="777" type="curve"/>
      <point x="499" y="788" type="line"/>
      <point x="441" y="732"/>
      <point x="355" y="700"/>
    </contour>
    <contour>
      <point x="259" y="514" type="move" name="_top"/>
    </contour>
    <contour>
      <point x="306" y="700" type="move" name="top"/>
    </contour>
  </outline>
</glyph>
<glyph name="uni030A" format="1">
  <advance width="236"/>
  <unicode hex="030A"/>
  <outline>
    <contour>
      <point x="240" y="791" type="curve" smooth="yes"/>
      <point x="180" y="791"/>
      <point x="131" y="746"/>
      <point x="131" y="688" type="curve" smooth="yes"/>
      <point x="131" y="638"/>
      <point x="167" y="608"/>
      <point x="214" y="608" type="curve" smooth="yes"/>
      <point x="273" y="608"/>
      <point x="326" y="655"/>
      <point x="326" y="711" type="curve" smooth="yes"/>
      <point x="326" y="760"/>
      <point x="288" y="791"/>
    </contour>
    <contour>
      <point x="218" y="629" type="curve" smooth="yes"/>
      <point x="188" y="629"/>
      <point x="157" y="649"/>
      <point x="157" y="689" type="curve" smooth="yes"/>
      <point x="157" y="731"/>
      <point x="195" y="770"/>
      <point x="236" y="770" type="curve" smooth="yes"/>
      <point x="267" y="770"/>
      <point x="300" y="750"/>
      <point x="300" y="712" type="curve" smooth="yes"/>
      <point x="300" y="664"/>
      <point x="260" y="629"/>
    </contour>
    <contour>
      <point x="183" y="514" type="move" name="_top"/>
    </contour>
    <contour>
      <point x="245" y="758" type="move" name="top"/>
    </contour>
  </outline>
</glyph>
<glyph name="uni0437" format="1">
  <advance width="461"/>
  <unicode hex="0437"/>
  <outline>
    <contour>
      <point x="145" y="4" type="curve" smooth="yes"/>
      <point x="98" y="3"/>
      <point x="43" y="21"/>
      <point x="34" y="41" type="curve"/>
      <point x="68" y="50"/>
      <point x="89" y="74"/>
      <point x="89" y="105" type="curve" smooth="yes"/>
      <point x="89" y="131"/>
      <point x="73" y="146"/>
      <point x="47" y="146" type="curve" smooth="yes"/>
      <point x="10" y="146"/>
      <point x="-21" y="115"/>
      <point x="-21" y="80" type="curve" smooth="yes"/>
      <point x="-21" y="25"/>
      <point x="53" y="-14"/>
      <point x="146" y="-14" type="curve" smooth="yes"/>
      <point x="274" y="-14"/>
      <point x="384" y="60"/>
      <point x="384" y="150" type="curve" smooth="yes"/>
      <point x="384" y="218"/>
      <point x="322" y="262"/>
      <point x="213" y="265" type="curve"/>
      <point x="330" y="281"/>
      <point x="432" y="360"/>
      <point x="432" y="437" type="curve" smooth="yes"/>
      <point x="432" y="492"/>
      <point x="381" y="528"/>
      <point x="299" y="528" type="curve" smooth="yes"/>
      <point x="206" y="528"/>
      <point x="129" y="481"/>
      <point x="84" y="394" type="curve"/>
      <point x="100" y="386" type="line"/>
      <point x="143" y="456"/>
      <point x="199" y="492"/>
      <point x="262" y="492" type="curve" smooth="yes"/>
      <point x="312" y="492"/>
      <point x="338" y="469"/>
      <point x="338" y="425" type="curve" smooth="yes"/>
      <point x="338" y="351"/>
      <point x="268" y="278"/>
      <point x="199" y="272" type="curve" smooth="yes"/>
      <point x="178" y="270"/>
      <point x="181" y="276"/>
      <point x="161" y="276" type="curve" smooth="yes"/>
      <point x="143" y="276"/>
      <point x="134" y="271"/>
      <point x="131" y="260" type="curve" smooth="yes"/>
      <point x="128" y="248"/>
      <point x="138" y="243"/>
      <point x="149" y="243" type="curve" smooth="yes"/>
      <point x="160" y="243"/>
      <point x="176" y="248"/>
      <point x="194" y="256" type="curve"/>
      <point x="257" y="257"/>
      <point x="293" y="220"/>
      <point x="293" y="154" type="curve" smooth="yes"/>
      <point x="293" y="64"/>
      <point x="226" y="5"/>
    </contour>
    <contour>
      <point x="181" y="0" type="move" name="bottom"/>
    </contour>
    <contour>
      <point x="294" y="514" type="move" name="top"/>
    </contour>
  </outline>
</glyph>
<glyph name="uni0463" format="1">
  <advance width="736"/>
  <unicode hex="0463"/>
  <outline>
    <contour>
      <point x="122" y="0" type="line"/>
      <point x="220" y="388" type="line" smooth="yes"/>
      <point x="237" y="455"/>
      <point x="254" y="528"/>
      <point x="174" y="528" type="curve" smooth="yes"/>
      <point x="131" y="528"/>
      <point x="84" y="507"/>
      <point x="56" y="425" type="curve" smooth="yes"/>
      <point x="31" y="352" type="line"/>
      <point x="50" y="352" type="line"/>
      <point x="63" y="389" type="line" smooth="yes"/>
      <point x="90" y="465"/>
      <point x="111" y="491"/>
      <point x="139" y="491" type="curve" smooth="yes"/>
      <point x="171" y="491"/>
      <point x="163" y="457"/>
      <point x="155" y="429" type="curve" smooth="yes"/>
      <point x="35" y="0" type="line"/>
    </contour>
    <contour>
      <point x="493" y="377" type="line" smooth="yes"/>
      <point x="522" y="450"/>
      <point x="518" y="528"/>
      <point x="431" y="528" type="curve" smooth="yes"/>
      <point x="341" y="528"/>
      <point x="260" y="444"/>
      <point x="168" y="208" type="curve"/>
      <point x="139" y="68" type="line"/>
      <point x="208" y="307"/>
      <point x="322" y="496"/>
      <point x="404" y="496" type="curve" smooth="yes"/>
      <point x="448" y="496"/>
      <point x="436" y="441"/>
      <point x="425" y="412" type="curve" smooth="yes"/>
      <point x="351" y="220" type="line" smooth="yes"/>
      <point x="282" y="40"/>
      <point x="364" y="-14"/>
      <point x="459" y="-14" type="curve" smooth="yes"/>
      <point x="591" y="-14"/>
      <point x="672" y="91"/>
      <point x="672" y="182" type="curve" smooth="yes"/>
      <point x="672" y="246"/>
      <point x="632" y="288"/>
      <point x="562" y="288" type="curve" smooth="yes"/>
      <point x="506" y="288"/>
      <point x="447" y="261"/>
      <point x="411" y="203" type="curve"/>
      <point x="417" y="192" type="line"/>
      <point x="441" y="236"/>
      <point x="490" y="259"/>
      <point x="528" y="259" type="curve" smooth="yes"/>
      <point x="575" y="259"/>
      <point x="592" y="224"/>
      <point x="592" y="174" type="curve" smooth="yes"/>
      <point x="592" y="68"/>
      <point x="515" y="4"/>
      <point x="454" y="4" type="curve" smooth="yes"/>
      <point x="404" y="4"/>
      <point x="362" y="48"/>
      <point x="419" y="191" type="curve" smooth="yes"/>
    </contour>
  </outline>
</glyph>
<glyph name="uni046A" format="1">
  <advance width="947"/>
  <unicode hex="046A"/>
  <outline>
    <contour>
      <point x="469" y="106" type="curve" smooth="yes"/>
      <point x="540" y="373" type="line"/>
      <point x="446" y="373" type="line"/>
      <point x="375" y="106" type="line" smooth="yes"/>
      <point x="355" y="32"/>
      <point x="340" y="23"/>
      <point x="274" y="20" type="curve"/>
      <point x="269" y="0" type="line"/>
      <point x="298" y="2"/>
      <point x="345" y="3"/>
      <point x="394" y="3" type="curve" smooth="yes"/>
      <point x="443" y="3"/>
      <point x="492" y="2"/>
      <point x="523" y="0" type="curve"/>
      <point x="527" y="20" type="line"/>
      <point x="448" y="24"/>
      <point x="453" y="45"/>
    </contour>
    <contour>
      <point x="771" y="41" type="curve" smooth="yes"/>
      <point x="742" y="41"/>
      <point x="740" y="62"/>
      <point x="741" y="92" type="curve" smooth="yes"/>
      <point x="745" y="205" type="line" smooth="yes"/>
      <point x="750" y="353"/>
      <point x="700" y="375"/>
      <point x="534" y="375" type="curve"/>
      <point x="520" y="360" type="line"/>
      <point x="640" y="355"/>
      <point x="664" y="317"/>
      <point x="657" y="215" type="curve" smooth="yes"/>
      <point x="650" y="102" type="line" smooth="yes"/>
      <point x="645" y="27"/>
      <point x="671" y="-14"/>
      <point x="734" y="-14" type="curve" smooth="yes"/>
      <point x="791" y="-14"/>
      <point x="831" y="19"/>
      <point x="856" y="93" type="curve" smooth="yes"/>
      <point x="882" y="170" type="line"/>
      <point x="862" y="170" type="line"/>
      <point x="845" y="119" type="line" smooth="yes"/>
      <point x="826" y="65"/>
      <point x="805" y="41"/>
    </contour>
    <contour>
      <point x="-28" y="85" type="curve"/>
      <point x="-43" y="78" type="line"/>
      <point x="-24" y="12"/>
      <point x="15" y="-14"/>
      <point x="62" y="-14" type="curve" smooth="yes"/>
      <point x="125" y="-14"/>
      <point x="150" y="27"/>
      <point x="185" y="102" type="curve" smooth="yes"/>
      <point x="238" y="215" type="line" smooth="yes"/>
      <point x="291" y="325"/>
      <point x="323" y="356"/>
      <point x="466" y="360" type="curve"/>
      <point x="450" y="375" type="line"/>
      <point x="274" y="377"/>
      <point x="218" y="347"/>
      <point x="146" y="205" type="curve" smooth="yes"/>
      <point x="88" y="92" type="line" smooth="yes"/>
      <point x="73" y="62"/>
      <point x="61" y="41"/>
      <point x="32" y="41" type="curve" smooth="yes"/>
      <point x="11" y="41"/>
      <point x="-12" y="52"/>
    </contour>
    <contour>
      <point x="468" y="299" type="line"/>
      <point x="485" y="299" type="line"/>
      <point x="762" y="599" type="line" smooth="yes"/>
      <point x="813" y="654"/>
      <point x="847" y="682"/>
      <point x="894" y="688" type="curve"/>
      <point x="899" y="708" type="line"/>
      <point x="777" y="706"/>
      <point x="684" y="705"/>
      <point x="581" y="705" type="curve" smooth="yes"/>
      <point x="485" y="705"/>
      <point x="377" y="706"/>
      <point x="248" y="708" type="curve"/>
      <point x="243" y="687" type="line"/>
      <point x="282" y="687"/>
      <point x="296" y="677"/>
      <point x="317" y="631" type="curve" smooth="yes"/>
    </contour>
    <contour>
      <point x="534" y="364" type="line"/>
      <point x="423" y="614" type="line" smooth="yes"/>
      <point x="396" y="674"/>
      <point x="465" y="687"/>
      <point x="588" y="687" type="curve" smooth="yes"/>
      <point x="758" y="687"/>
      <point x="781" y="653"/>
      <point x="687" y="549" type="curve" smooth="yes"/>
      <point x="521" y="366" type="line"/>
    </contour>
  </outline>
</glyph>
<glyph name="uni04AF" format="1">
  <advance width="600"/>
  <unicode hex="04AF"/>
  <outline>
    <contour>
      <point x="299" y="123" type="line"/>
      <point x="252" y="59" type="line"/>
      <point x="208" y="130" type="line"/>
      <point x="157" y="-75" type="line" smooth="yes"/>
      <point x="139" y="-148"/>
      <point x="123" y="-158"/>
      <point x="54" y="-161" type="curve"/>
      <point x="49" y="-181" type="line"/>
      <point x="78" y="-179"/>
      <point x="126" y="-178"/>
      <point x="178" y="-178" type="curve" smooth="yes"/>
      <point x="224" y="-178"/>
      <point x="274" y="-179"/>
      <point x="304" y="-181" type="curve"/>
      <point x="309" y="-161" type="line"/>
      <point x="242" y="-158"/>
      <point x="232" y="-148"/>
      <point x="250" y="-75" type="curve" smooth="yes"/>
    </contour>
    <contour>
      <point x="587" y="515" type="line"/>
      <point x="565" y="513"/>
      <point x="541" y="512"/>
      <point x="510" y="512" type="curve" smooth="yes"/>
      <point x="479" y="512"/>
      <point x="461" y="513"/>
      <point x="427" y="515" type="curve"/>
      <point x="422" y="495" type="line"/>
      <point x="492" y="490"/>
      <point x="503" y="467"/>
      <point x="461" y="401" type="curve" smooth="yes"/>
      <point x="273" y="102" type="line"/>
      <point x="280" y="107" type="line"/>
      <point x="232" y="416" type="line" smooth="yes"/>
      <point x="220" y="494"/>
      <point x="262" y="494"/>
      <point x="312" y="494" type="curve"/>
      <point x="317" y="515" type="line"/>
      <point x="276" y="512"/>
      <point x="227" y="511"/>
      <point x="186" y="511" type="curve" smooth="yes"/>
      <point x="152" y="511"/>
      <point x="124" y="513"/>
      <point x="99" y="515" type="curve"/>
      <point x="94" y="494" type="line"/>
      <point x="108" y="494"/>
      <point x="129" y="490"/>
      <point x="138" y="438" type="curve" smooth="yes"/>
      <point x="211" y="-5" type="line"/>
      <point x="217" y="-5"/>
      <point x="222" y="-5"/>
      <point x="228" y="-5" type="curve"/>
      <point x="499" y="425" type="line" smooth="yes"/>
      <point x="531" y="476"/>
      <point x="556" y="492"/>
      <point x="582" y="495" type="curve"/>
    </contour>
  </outline>
</glyph>
<glyph name="uni04CA" format="1">
  <advance width="586"/>
  <unicode hex="04CA"/>
  <outline>
    <contour>
      <point x="311" y="-196" type="line"/>
      <point x="412" y="-146"/>
      <point x="480" y="-63"/>
      <point x="511" y="20" type="curve"/>
      <point x="480" y="20" type="line" smooth="yes"/>
      <point x="413" y="20"/>
      <point x="399" y="33"/>
      <point x="419" y="106" type="curve" smooth="yes"/>
      <point x="537" y="528" type="line"/>
      <point x="512" y="519"/>
      <point x="479" y="515"/>
      <point x="446" y="514" type="curve"/>
      <point x="348" y="126" type="line" smooth="yes"/>
      <point x="322" y="21"/>
      <point x="332" y="13"/>
      <point x="365" y="-8" type="curve" smooth="yes"/>
      <point x="420" y="-43"/>
      <point x="423" y="-70"/>
      <point x="299" y="-179" type="curve"/>
    </contour>
    <contour>
      <point x="34" y="0" type="line"/>
      <point x="121" y="0" type="line"/>
      <point x="219" y="388" type="line" smooth="yes"/>
      <point x="235" y="451"/>
      <point x="254" y="528"/>
      <point x="174" y="528" type="curve" smooth="yes"/>
      <point x="135" y="528"/>
      <point x="84" y="509"/>
      <point x="55" y="425" type="curve" smooth="yes"/>
      <point x="30" y="352" type="line"/>
      <point x="49" y="352" type="line"/>
      <point x="62" y="389" type="line" smooth="yes"/>
      <point x="87" y="460"/>
      <point x="110" y="491"/>
      <point x="139" y="491" type="curve" smooth="yes"/>
      <point x="171" y="491"/>
      <point x="161" y="453"/>
      <point x="154" y="429" type="curve" smooth="yes"/>
    </contour>
    <contour>
      <point x="153" y="259" type="line"/>
      <point x="423" y="259" type="line"/>
      <point x="423" y="279" type="line"/>
      <point x="153" y="279" type="line"/>
    </contour>
  </outline>
</glyph>
<glyph name="acutecomb.case" format="1">
  <advance width="273"/>
  <outline>
    <contour>
      <point x="151" y="783" type="curve"/>
      <point x="158" y="772" type="line"/>
      <point x="271" y="827"/>
      <point x="334" y="839"/>
      <point x="380" y="866" type="curve" smooth="yes"/>
      <point x="400" y="877"/>
      <point x="422" y="899"/>
      <point x="413" y="920" type="curve" smooth="yes"/>
      <point x="402" y="945"/>
      <point x="367" y="937"/>
      <point x="347" y="925" type="curve" smooth="yes"/>
      <point x="300" y="897"/>
      <point x="256" y="854"/>
    </contour>
    <contour>
      <point x="163" y="708" type="move" name="_top"/>
    </contour>
    <contour>
      <point x="218" y="928" type="move" name="top"/>
    </contour>
  </outline>
</glyph>
<glyph name="hacek.smcp" format="1">
  <advance width="138"/>
  <outline>
    <contour>
      <point x="57" y="375" type="curve"/>
      <point x="71" y="371" type="line"/>
      <point x="154" y="472"/>
      <point x="203" y="559"/>
      <point x="203" y="611" type="curve" smooth="yes"/>
      <point x="203" y="614"/>
      <point x="203" y="617"/>
      <point x="202" y="619" type="curve"/>
      <point x="183" y="613"/>
      <point x="162" y="607"/>
      <point x="129" y="607" type="curve" smooth="yes"/>
      <point x="122" y="607"/>
      <point x="116" y="608"/>
      <point x="108" y="608" type="curve"/>
      <point x="105" y="587" type="line"/>
      <point x="115" y="587"/>
      <point x="118" y="580"/>
      <point x="118" y="568" type="curve" smooth="yes"/>
      <point x="118" y="543"/>
      <point x="102" y="473"/>
    </contour>
    <contour>
      <point x="35" y="608" type="move" name="_topright"/>
    </contour>
  </outline>
</glyph>
<glyph name="longs_longs_l.liga" format="1">
  <advance width="877"/>
  <outline>
    <contour>
      <point x="67" y="494" type="line"/>
      <point x="214" y="494" type="line"/>
      <point x="220" y="514" type="line"/>
      <point x="73" y="514" type="line"/>
    </contour>
    <contour>
      <point x="60" y="-174" type="curve"/>
      <point x="251" y="515" type="line" smooth="yes"/>
      <point x="277" y="613"/>
      <point x="302" y="668"/>
      <point x="350" y="700" type="curve" smooth="yes"/>
      <point x="371" y="714"/>
      <point x="400" y="724"/>
      <point x="434" y="724" type="curve" smooth="yes"/>
      <point x="488" y="724"/>
      <point x="530" y="698"/>
      <point x="552" y="658" type="curve"/>
      <point x="565" y="676" type="line"/>
      <point x="543" y="708"/>
      <point x="504" y="742"/>
      <point x="432" y="742" type="curve" smooth="yes"/>
      <point x="368" y="742"/>
      <point x="307" y="722"/>
      <point x="253" y="674" type="curve" smooth="yes"/>
      <point x="212" y="637"/>
      <point x="178" y="567"/>
      <point x="160" y="499" type="curve" smooth="yes"/>
      <point x="-30" y="-188" type="line"/>
      <point x="-4" y="-179"/>
      <point x="28" y="-175"/>
    </contour>
    <component base="longs_l.liga" xOffset="290"/>
  </outline>
</glyph>
<glyph name="longs_t.liga" format="1">
  <advance width="630"/>
  <outline>
    <contour>
      <point x="67" y="494" type="line"/>
      <point x="214" y="494" type="line"/>
      <point x="220" y="514" type="line"/>
      <point x="73" y="514" type="line"/>
    </contour>
    <contour>
      <point x="60" y="-174" type="curve"/>
      <point x="251" y="516" type="line" smooth="yes"/>
      <point x="298" y="669"/>
      <point x="341" y="765"/>
      <point x="450" y="765" type="curve" smooth="yes"/>
      <point x="507" y="765"/>
      <point x="550" y="720"/>
      <point x="571" y="662" type="curve"/>
      <point x="584" y="680" type="line"/>
      <point x="563" y="734"/>
      <point x="524" y="783"/>
      <point x="445" y="783" type="curve" smooth="yes"/>
      <point x="302" y="783"/>
      <point x="208" y="669"/>
      <point x="159" y="500" type="curve" smooth="yes"/>
      <point x="-30" y="-188" type="line"/>
      <point x="-4" y="-179"/>
      <point x="28" y="-175"/>
    </contour>
    <component base="t" xOffset="294"/>
  </outline>
</glyph>
<glyph name="strokelongoverlaycomb.smcp" format="1">
  <advance width="793"/>
  <outline>
    <contour>
      <point x="822" y="454" type="line"/>
      <point x="69" y="454" type="line"/>
      <point x="64" y="434" type="line"/>
      <point x="817" y="434" type="line"/>
    </contour>
    <contour>
      <point x="443" y="444" type="move" name="_center"/>
    </contour>
  </outline>
</glyph>
<glyph name="uhorn.smcp" format="1">
  <advance width="683"/>
  <outline>
    <contour>
      <point x="271" y="-14" type="curve" smooth="yes"/>
      <point x="354" y="-14"/>
      <point x="428" y="23"/>
      <point x="476" y="79" type="curve" smooth="yes"/>
      <point x="519" y="130"/>
      <point x="550" y="198"/>
      <point x="574" y="291" type="curve" smooth="yes"/>
      <point x="653" y="596" type="line"/>
      <point x="643" y="586" type="line"/>
      <point x="674" y="587"/>
      <point x="706" y="596"/>
      <point x="746" y="620" type="curve" smooth="yes"/>
      <point x="783" y="642"/>
      <point x="811" y="673"/>
      <point x="811" y="708" type="curve" smooth="yes"/>
      <point x="811" y="738"/>
      <point x="792" y="764"/>
      <point x="755" y="764" type="curve" smooth="yes"/>
      <point x="716" y="764"/>
      <point x="697" y="735"/>
      <point x="697" y="704" type="curve" smooth="yes"/>
      <point x="697" y="674"/>
      <point x="718" y="649"/>
      <point x="738" y="634" type="curve"/>
      <point x="739" y="639" type="line"/>
      <point x="696" y="605"/>
      <point x="652" y="605"/>
      <point x="616" y="605" type="curve" smooth="yes"/>
      <point x="590" y="605"/>
      <point x="561" y="606"/>
      <point x="542" y="608" type="curve"/>
      <point x="537" y="588" type="line"/>
      <point x="569" y="585"/>
      <point x="602" y="584"/>
      <point x="634" y="586" type="curve"/>
      <point x="630" y="597" type="line"/>
      <point x="548" y="280" type="line" smooth="yes"/>
      <point x="509" y="131"/>
      <point x="439" y="21"/>
      <point x="290" y="21" type="curve" smooth="yes"/>
      <point x="150" y="21"/>
      <point x="158" y="134"/>
      <point x="194" y="271" type="curve" smooth="yes"/>
      <point x="256" y="502" type="line" smooth="yes"/>
      <point x="275" y="575"/>
      <point x="290" y="585"/>
      <point x="359" y="588" type="curve"/>
      <point x="365" y="608" type="line"/>
      <point x="333" y="606"/>
      <point x="286" y="605"/>
      <point x="240" y="605" type="curve" smooth="yes"/>
      <point x="188" y="605"/>
      <point x="138" y="606"/>
      <point x="111" y="608" type="curve"/>
      <point x="105" y="588" type="line"/>
      <point x="172" y="585"/>
      <point x="183" y="575"/>
      <point x="164" y="502" type="curve" smooth="yes"/>
      <point x="107" y="288" type="line" smooth="yes"/>
      <point x="71" y="153"/>
      <point x="72" y="96"/>
      <point x="117" y="40" type="curve" smooth="yes"/>
      <point x="149" y="-1"/>
      <point x="206" y="-14"/>
    </contour>
    <contour>
      <point x="279" y="0" type="move" name="bottom"/>
    </contour>
    <contour>
      <point x="350" y="0" type="move" name="ogonek"/>
    </contour>
    <contour>
      <point x="444" y="608" type="move" name="top"/>
    </contour>
  </outline>
</glyph>
<glyph name="uni01E5.smcp" format="1">
  <advance width="697"/>
  <outline>
    <contour>
      <point x="534" y="0" type="line"/>
      <point x="582" y="178" type="line" smooth="yes"/>
      <point x="602" y="252"/>
      <point x="611" y="261"/>
      <point x="658" y="264" type="curve"/>
      <point x="662" y="284" type="line"/>
      <point x="638" y="282"/>
      <point x="602" y="281"/>
      <point x="558" y="281" type="curve" smooth="yes"/>
      <point x="513" y="281"/>
      <point x="452" y="282"/>
      <point x="417" y="284" type="curve"/>
      <point x="413" y="264" type="line"/>
      <point x="495" y="260"/>
      <point x="510" y="250"/>
      <point x="488" y="168" type="curve" smooth="yes"/>
      <point x="466" y="86" type="line" smooth="yes"/>
      <point x="449" y="23"/>
      <point x="360" y="6"/>
      <point x="308" y="6" type="curve" smooth="yes"/>
      <point x="191" y="6"/>
      <point x="135" y="56"/>
      <point x="135" y="162" type="curve" smooth="yes"/>
      <point x="135" y="307"/>
      <point x="224" y="604"/>
      <point x="446" y="604" type="curve" smooth="yes"/>
      <point x="513" y="604"/>
      <point x="572" y="575"/>
      <point x="600" y="526" type="curve" smooth="yes"/>
      <point x="611" y="505"/>
      <point x="614" y="481"/>
      <point x="614" y="453" type="curve" smooth="yes"/>
      <point x="614" y="429"/>
      <point x="612" y="404"/>
      <point x="609" y="378" type="curve"/>
      <point x="631" y="378" type="line"/>
      <point x="658" y="494"/>
      <point x="678" y="559"/>
      <point x="695" y="608" type="curve"/>
      <point x="673" y="608" type="line"/>
      <point x="652" y="547"/>
      <point x="636" y="537"/>
      <point x="616" y="557" type="curve" smooth="yes"/>
      <point x="579" y="593"/>
      <point x="539" y="622"/>
      <point x="452" y="622" type="curve" smooth="yes"/>
      <point x="191" y="622"/>
      <point x="42" y="383"/>
      <point x="42" y="195" type="curve" smooth="yes"/>
      <point x="42" y="61"/>
      <point x="130" y="-14"/>
      <point x="294" y="-14" type="curve" smooth="yes"/>
      <point x="359" y="-14"/>
      <point x="405" y="-3"/>
      <point x="449" y="24" type="curve" smooth="yes"/>
      <point x="470" y="37"/>
      <point x="489" y="47"/>
      <point x="502" y="47" type="curve" smooth="yes"/>
      <point x="519" y="47"/>
      <point x="519" y="19"/>
      <point x="514" y="0" type="curve"/>
    </contour>
    <contour>
      <point x="373" y="138" type="line"/>
      <point x="668" y="138" type="line"/>
      <point x="672" y="158" type="line"/>
      <point x="377" y="158" type="line"/>
    </contour>
    <contour>
      <point x="300" y="0" type="move" name="bottom"/>
    </contour>
    <contour>
      <point x="452" y="608" type="move" name="top"/>
    </contour>
  </outline>
</glyph>
<glyph name="uni0259.smcp" format="1">
  <advance width="714"/>
  <outline>
    <contour>
      <point x="272" y="-14" type="curve" smooth="yes"/>
      <point x="522" y="-14"/>
      <point x="672" y="216"/>
      <point x="672" y="377" type="curve" smooth="yes"/>
      <point x="672" y="532"/>
      <point x="584" y="622"/>
      <point x="423" y="622" type="curve" smooth="yes"/>
      <point x="322" y="622"/>
      <point x="264" y="587"/>
      <point x="211" y="557" type="curve" smooth="yes"/>
      <point x="202" y="552"/>
      <point x="194" y="549"/>
      <point x="189" y="549" type="curve" smooth="yes"/>
      <point x="180" y="549"/>
      <point x="176" y="556"/>
      <point x="176" y="574" type="curve" smooth="yes"/>
      <point x="176" y="582"/>
      <point x="177" y="594"/>
      <point x="179" y="608" type="curve"/>
      <point x="156" y="608" type="line"/>
      <point x="147" y="559"/>
      <point x="131" y="494"/>
      <point x="102" y="378" type="curve"/>
      <point x="125" y="378" type="line"/>
      <point x="156" y="453"/>
      <point x="178" y="495"/>
      <point x="212" y="526" type="curve" smooth="yes"/>
      <point x="260" y="570"/>
      <point x="337" y="593"/>
      <point x="395" y="593" type="curve" smooth="yes"/>
      <point x="493" y="593"/>
      <point x="566" y="520"/>
      <point x="566" y="393" type="curve" smooth="yes"/>
      <point x="566" y="223"/>
      <point x="461" y="4"/>
      <point x="279" y="4" type="curve" smooth="yes"/>
      <point x="174" y="4"/>
      <point x="135" y="94"/>
      <point x="135" y="212" type="curve" smooth="yes"/>
      <point x="135" y="245"/>
      <point x="137" y="270"/>
      <point x="142" y="297" type="curve"/>
      <point x="580" y="297" type="line"/>
      <point x="584" y="316" type="line"/>
      <point x="40" y="316" type="line"/>
      <point x="33" y="287"/>
      <point x="29" y="260"/>
      <point x="29" y="235" type="curve" smooth="yes"/>
      <point x="29" y="63"/>
      <point x="128" y="-14"/>
    </contour>
    <contour>
      <point x="281" y="0" type="move" name="bottom"/>
    </contour>
    <contour>
      <point x="433" y="608" type="move" name="top"/>
    </contour>
  </outline>
</glyph>
<glyph name="uni0302.smcp" format="1">
  <advance width="432"/>
  <outline>
    <contour>
      <point x="338" y="740" type="curve"/>
      <point x="386" y="714"/>
      <point x="424" y="689"/>
      <point x="515" y="672" type="curve"/>
      <point x="519" y="686" type="line"/>
      <point x="451" y="713"/>
      <point x="414" y="758"/>
      <point x="380" y="816" type="curve"/>
      <point x="362" y="816" type="line"/>
      <point x="311" y="765"/>
      <point x="224" y="716"/>
      <point x="127" y="686" type="curve"/>
      <point x="132" y="672" type="line"/>
      <point x="204" y="688"/>
      <point x="286" y="718"/>
    </contour>
    <contour>
      <point x="325" y="608" type="move" name="_top"/>
    </contour>
    <contour>
      <point x="459" y="763" type="move" name="right"/>
    </contour>
    <contour>
      <point x="380" y="828" type="move" name="top"/>
    </contour>
  </outline>
</glyph>
<glyph name="uni0304.case" format="1">
  <advance width="392"/>
  <outline>
    <contour>
      <point x="518" y="844" type="line"/>
      <point x="166" y="844" type="line"/>
      <point x="160" y="819" type="line"/>
      <point x="512" y="819" type="line"/>
    </contour>
    <contour>
      <point x="363" y="819" type="move" name="_center"/>
    </contour>
    <contour>
      <point x="335" y="708" type="move" name="_top"/>
    </contour>
    <contour>
      <point x="390" y="928" type="move" name="top"/>
    </contour>
  </outline>
</glyph>
<glyph name="uni0308.case" format="1">
  <advance width="369"/>
  <outline>
    <contour>
      <point x="163" y="823" type="curve" smooth="yes"/>
      <point x="163" y="794"/>
      <point x="183" y="772"/>
      <point x="213" y="772" type="curve" smooth="yes"/>
      <point x="249" y="772"/>
      <point x="280" y="805"/>
      <point x="280" y="838" type="curve" smooth="yes"/>
      <point x="280" y="866"/>
      <point x="258" y="888"/>
      <point x="230" y="888" type="curve" smooth="yes"/>
      <point x="194" y="888"/>
      <point x="163" y="854"/>
    </contour>
    <contour>
      <point x="375" y="823" type="curve" smooth="yes"/>
      <point x="375" y="794"/>
      <point x="395" y="772"/>
      <point x="425" y="772" type="curve" smooth="yes"/>
      <point x="461" y="772"/>
      <point x="492" y="805"/>
      <point x="492" y="838" type="curve" smooth="yes"/>
      <point x="492" y="866"/>
      <point x="470" y="888"/>
      <point x="442" y="888" type="curve" smooth="yes"/>
      <point x="406" y="888"/>
      <point x="375" y="854"/>
    </contour>
    <contour>
      <point x="300" y="708" type="move" name="_top"/>
    </contour>
    <contour>
      <point x="355" y="928" type="move" name="top"/>
    </contour>
  </outline>
</glyph>
<glyph name="uni030C.smcp" format="1">
  <advance width="432"/>
  <outline>
    <contour>
      <point x="339" y="756" type="curve"/>
      <point x="291" y="782"/>
      <point x="253" y="807"/>
      <point x="162" y="824" type="curve"/>
      <point x="158" y="810" type="line"/>
      <point x="226" y="783"/>
      <point x="263" y="738"/>
      <point x="297" y="680" type="curve"/>
      <point x="315" y="680" type="line"/>
      <point x="366" y="731"/>
      <point x="453" y="780"/>
      <point x="550" y="810" type="curve"/>
      <point x="545" y="824" type="line"/>
      <point x="473" y="808"/>
      <point x="391" y="778"/>
    </contour>
    <contour>
      <point x="307" y="608" type="move" name="_top"/>
    </contour>
    <contour>
      <point x="362" y="828" type="move" name="top"/>
    </contour>
  </outline>
</glyph>
<glyph name="uni0328.case" format="1">
  <advance width="246"/>
  <outline>
    <contour>
      <point x="120" y="3" type="curve"/>
      <point x="82" y="3" type="line"/>
      <point x="19" y="-18"/>
      <point x="-74" y="-63"/>
      <point x="-74" y="-130" type="curve" smooth="yes"/>
      <point x="-74" y="-165"/>
      <point x="-49" y="-188"/>
      <point x="0" y="-188" type="curve" smooth="yes"/>
      <point x="43" y="-188"/>
      <point x="87" y="-171"/>
      <point x="129" y="-131" type="curve"/>
      <point x="118" y="-114" type="line"/>
      <point x="101" y="-127"/>
      <point x="68" y="-140"/>
      <point x="41" y="-140" type="curve" smooth="yes"/>
      <point x="16" y="-140"/>
      <point x="2" y="-128"/>
      <point x="2" y="-103" type="curve" smooth="yes"/>
      <point x="2" y="-47"/>
      <point x="69" y="-11"/>
    </contour>
    <contour>
      <point x="110" y="0" type="move" name="_ogonek"/>
    </contour>
  </outline>
</glyph>
<glyph name="uni0463.smcp" format="1">
  <advance width="590"/>
  <outline>
    <contour>
      <point x="46" y="441" type="line"/>
      <point x="381" y="441" type="line"/>
      <point x="385" y="461" type="line"/>
      <point x="50" y="461" type="line"/>
    </contour>
    <component base="uni044C.smcp"/>
  </outline>
</glyph>
